#N canvas 234 221 1383 419 12;
#X obj 119 177 osc~ 440;
#X obj 320 349 writesf~;
#X obj 320 84 loadbang;
#X msg 342 124 \; pd dsp 1 \;;
#X msg 320 277 stop;
#X obj 472 45 receive in;
#X obj 565 44 receive out;
#X obj 664 44 receive clipboard;
#X msg 343 183 open \$1 \, start;
#X obj 565 76 pack s;
#X text 391 44 CLI args:;
#X obj 472 150 soundfiler;
#X floatatom 472 183 5 0 0 0 - - - 0;
#X obj 472 81 pack s;
#N canvas 0 50 450 250 (subpatch) 0;
#X array input 2816 float 0;
#X coords 0 1 2815 -1 400 137 1 0 0;
#X restore 807 48 graph;
#X text 440 250 stop when input.wav length reached;
#X msg 472 118 read -resize \$1 input;
#X obj 320 250 delay \$1 1 samp;
#X text 20 130 generate sound:;
#X obj 120 226 adc~;
#X text 45 176 sinewave;
#X text 10 227 audio line-in;
#X text 802 232 in milkytracker sample editor rightclick Addons > import from addon to (re)import the result;
#X connect 0 0 1 0;
#X connect 2 0 3 0;
#X connect 2 0 17 0;
#X connect 4 0 1 0;
#X connect 5 0 13 0;
#X connect 6 0 9 0;
#X connect 8 0 1 0;
#X connect 9 0 8 0;
#X connect 11 0 12 0;
#X connect 11 0 17 0;
#X connect 13 0 16 0;
#X connect 16 0 11 0;
#X connect 17 0 4 0;
#X connect 19 0 1 0;
