#N canvas 504 148 1383 419 12;
#X obj 119 177 osc~ 440;
#X obj 320 349 writesf~;
#X obj 320 84 loadbang;
#X msg 320 124 \; pd dsp 1 \;;
#X obj 475 111 receive out;
#X obj 475 143 pack s;
#N canvas 0 50 450 250 (subpatch) 0;
#X array input 100 float 0;
#X coords 0 1 99 -1 400 137 1 0 0;
#X restore 807 48 graph;
#X text 20 130 generate sound:;
#X obj 120 226 adc~;
#X text 45 176 sinewave;
#X text 10 227 audio line-in;
#X text 802 232 in milkytracker sample editor rightclick Addons > import from addon to (re)import the result;
#X msg 463 320 read -resize \$1 out;
#X obj 122 354 dac~;
#X text 7 354 audio speakers;
#X msg 475 178 open \$1, f 16;
#X connect 0 0 1 0;
#X connect 2 0 3 0;
#X connect 4 0 5 0;
#X connect 5 0 15 0;
#X connect 8 0 1 0;
#X connect 15 0 1 0;
